<?xml version="1.0" encoding="UTF-8"?>
<svg xmlns="http://www.w3.org/2000/svg" xmlns:xlink="http://www.w3.org/1999/xlink" width="375pt" height="374.999991pt" viewBox="0 0 375 374.999991" version="1.2">
<defs>
<clipPath id="clip1">
  <path d="M 154 102.691406 L 262.5 102.691406 L 262.5 227.941406 L 154 227.941406 Z M 154 102.691406 "/>
</clipPath>
</defs>
<g id="surface1">
<g clip-path="url(#clip1)" clip-rule="nonzero">
<path style=" stroke:none;fill-rule:nonzero;fill:rgb(95.289612%,3.529358%,3.529358%);fill-opacity:1;" d="M 236.652344 186.65625 L 187.195312 149.671875 C 192.09375 143.652344 198.964844 139.75 206.6875 138.628906 C 214.847656 137.433594 222.996094 139.511719 229.601562 144.457031 C 242.886719 154.394531 245.902344 173.0625 236.652344 186.65625 Z M 222.414062 220.960938 C 222.367188 221.078125 222.332031 221.199219 222.320312 221.324219 C 222.226562 222.246094 221.984375 222.933594 221.726562 223.328125 C 221.664062 223.375 221.542969 223.480469 221.464844 223.5625 C 221.394531 223.613281 221.335938 223.671875 221.277344 223.738281 C 219.734375 225.464844 217.210938 225.75 215.394531 224.394531 C 213.582031 223.039062 213.132812 220.535156 214.351562 218.558594 C 214.71875 217.96875 214.574219 217.195312 214.019531 216.777344 L 213.667969 216.515625 C 213.429688 216.328125 213.144531 216.246094 212.863281 216.246094 C 212.492188 216.246094 212.121094 216.394531 211.859375 216.695312 C 210.3125 218.421875 207.789062 218.710938 205.976562 217.355469 C 204.164062 216 203.71875 213.484375 204.933594 211.515625 C 205.300781 210.921875 205.15625 210.148438 204.601562 209.734375 L 204.253906 209.472656 C 203.695312 209.050781 202.910156 209.125 202.445312 209.652344 C 200.898438 211.382812 198.363281 211.667969 196.558594 210.3125 C 194.746094 208.957031 194.300781 206.445312 195.519531 204.476562 C 195.886719 203.886719 195.742188 203.109375 195.1875 202.691406 L 194.839844 202.429688 C 194.285156 202.007812 193.492188 202.078125 193.03125 202.609375 C 191.484375 204.339844 188.957031 204.625 187.144531 203.273438 C 185.335938 201.917969 184.886719 199.414062 186.097656 197.441406 L 195.359375 184.535156 C 195.792969 183.929688 195.652344 183.09375 195.050781 182.65625 C 194.449219 182.226562 193.609375 182.359375 193.175781 182.964844 L 184.4375 195.148438 C 184.128906 195.1875 183.832031 195.320312 183.613281 195.570312 C 182.066406 197.296875 179.535156 197.582031 177.726562 196.226562 C 175.914062 194.871094 175.46875 192.363281 176.691406 190.390625 C 176.84375 190.148438 176.851562 189.871094 176.835938 189.601562 L 192.167969 172.277344 C 192.660156 171.722656 192.609375 170.871094 192.050781 170.378906 C 191.496094 169.882812 190.648438 169.929688 190.15625 170.492188 L 174.195312 188.53125 C 172.644531 190.257812 170.121094 190.539062 168.3125 189.1875 C 166.5 187.835938 166.050781 185.320312 167.273438 183.347656 C 167.40625 183.136719 167.394531 182.894531 167.398438 182.65625 L 174.84375 175.15625 C 175.367188 174.628906 175.363281 173.773438 174.839844 173.253906 C 174.3125 172.722656 173.460938 172.734375 172.941406 173.257812 L 164.832031 181.429688 C 164.820312 181.441406 164.828125 181.457031 164.816406 181.464844 C 164.804688 181.476562 164.789062 181.472656 164.78125 181.484375 C 163.234375 183.21875 160.707031 183.503906 158.894531 182.144531 C 157.082031 180.789062 156.636719 178.277344 157.855469 176.308594 C 157.921875 176.199219 157.96875 176.085938 158 175.96875 C 158 175.964844 158.003906 175.960938 158.003906 175.957031 C 158.367188 175.464844 158.878906 175.058594 159.5625 174.714844 C 159.664062 174.664062 159.757812 174.601562 159.84375 174.527344 L 185.011719 152.558594 L 235.304688 189.027344 Z M 261.730469 107.644531 C 261.136719 107.199219 260.292969 107.324219 259.847656 107.917969 L 233.0625 143.839844 C 232.457031 143.3125 231.859375 142.785156 231.210938 142.300781 C 230.5625 141.8125 229.882812 141.382812 229.210938 140.949219 L 255.988281 105.03125 C 256.433594 104.4375 256.3125 103.59375 255.714844 103.148438 C 255.121094 102.707031 254.285156 102.828125 253.835938 103.421875 L 226.875 139.582031 C 220.601562 136.222656 213.464844 134.921875 206.300781 135.964844 C 197.421875 137.253906 189.578125 141.925781 184.214844 149.121094 C 184.042969 149.355469 183.980469 149.625 183.972656 149.890625 L 158.199219 172.390625 C 157.210938 172.914062 156.433594 173.566406 155.75 174.53125 C 155.539062 174.71875 155.414062 174.976562 155.359375 175.253906 C 153.671875 178.359375 154.460938 182.1875 157.289062 184.304688 C 159.257812 185.78125 161.742188 186.070312 163.910156 185.253906 C 163.753906 187.570312 164.734375 189.875 166.707031 191.34375 C 168.675781 192.820312 171.164062 193.097656 173.324219 192.296875 C 173.167969 194.609375 174.148438 196.910156 176.121094 198.382812 C 178.085938 199.859375 180.558594 200.144531 182.742188 199.335938 C 182.585938 201.648438 183.566406 203.953125 185.535156 205.429688 C 187.507812 206.902344 190 207.191406 192.15625 206.375 C 192 208.691406 192.980469 210.996094 194.949219 212.46875 C 196.914062 213.9375 199.402344 214.230469 201.574219 213.421875 C 201.417969 215.734375 202.398438 218.039062 204.367188 219.511719 C 206.335938 220.988281 208.824219 221.273438 210.992188 220.460938 C 210.832031 222.777344 211.8125 225.082031 213.785156 226.550781 C 215.039062 227.492188 216.5 227.949219 217.957031 227.949219 C 219.75 227.949219 221.53125 227.257812 222.910156 225.914062 C 223.195312 225.789062 223.425781 225.566406 223.5625 225.285156 C 223.625 225.222656 223.683594 225.15625 223.71875 225.113281 C 224.398438 224.195312 224.808594 223.113281 224.972656 221.800781 L 238.140625 189.1875 C 248.039062 175.738281 246.410156 157.273438 235.035156 145.695312 L 262.003906 109.527344 C 262.449219 108.929688 262.328125 108.089844 261.730469 107.644531 "/>
</g>
<path style=" stroke:none;fill-rule:nonzero;fill:rgb(95.289612%,3.529358%,3.529358%);fill-opacity:1;" d="M 229.347656 150.925781 C 228.792969 150.429688 227.953125 150.476562 227.453125 151.027344 C 226.957031 151.582031 227.003906 152.433594 227.554688 152.925781 C 227.898438 153.238281 236 160.699219 233.050781 171.007812 C 232.847656 171.722656 233.257812 172.464844 233.972656 172.671875 C 234.09375 172.707031 234.21875 172.722656 234.34375 172.722656 C 234.929688 172.722656 235.46875 172.335938 235.636719 171.746094 C 239.050781 159.796875 229.742188 151.28125 229.347656 150.925781 "/>
<path style=" stroke:none;fill-rule:nonzero;fill:rgb(95.289612%,3.529358%,3.529358%);fill-opacity:1;" d="M 231.246094 174.8125 C 230.667969 175.589844 230.824219 176.691406 231.601562 177.269531 C 232.375 177.847656 233.472656 177.6875 234.050781 176.914062 C 234.628906 176.136719 234.472656 175.039062 233.695312 174.457031 C 232.921875 173.878906 231.824219 174.039062 231.246094 174.8125 "/>
<path style=" stroke:none;fill-rule:nonzero;fill:rgb(95.289612%,3.529358%,3.529358%);fill-opacity:1;" d="M 143.289062 211.902344 C 141.164062 212.273438 138.742188 211.683594 136.851562 210.320312 C 135.179688 209.121094 134.105469 207.472656 133.824219 205.6875 L 133.664062 204.667969 L 132.640625 204.558594 C 124.660156 203.691406 117.722656 197.925781 116.148438 190.84375 C 115.324219 187.105469 116.230469 182.847656 118.574219 179.457031 C 120.574219 176.566406 123.335938 174.726562 126.371094 174.15625 C 126.117188 174.488281 125.820312 174.773438 125.59375 175.136719 C 123.554688 178.460938 123.3125 182.398438 124.96875 185.414062 L 127.324219 184.121094 C 126.128906 181.949219 126.347656 179.050781 127.882812 176.546875 C 129.421875 174.046875 131.890625 172.464844 134.386719 172.636719 L 134.476562 169.945312 C 132.121094 169.859375 129.84375 170.8125 127.960938 172.433594 L 127.953125 172.398438 C 127.203125 169.125 129.203125 165.320312 132.320312 164.085938 C 135.441406 162.847656 139.492188 164.25 141.1875 167.148438 L 143.507812 165.789062 C 143.46875 165.726562 143.414062 165.671875 143.375 165.609375 L 143.457031 165.609375 C 143.511719 163.601562 145.152344 161.664062 147.125 161.289062 C 149.078125 160.882812 151.328125 162.105469 152.117188 163.953125 L 154.585938 162.898438 C 153.308594 159.898438 149.800781 158.035156 146.617188 158.644531 C 144.207031 159.105469 142.15625 160.945312 141.257812 163.214844 C 138.523438 161.039062 134.621094 160.285156 131.328125 161.582031 C 127.410156 163.136719 124.839844 167.441406 125.128906 171.625 C 121.691406 172.472656 118.613281 174.671875 116.363281 177.925781 C 113.601562 181.917969 112.539062 186.96875 113.527344 191.425781 C 115.277344 199.308594 122.707031 205.769531 131.386719 207.105469 C 131.972656 209.210938 133.328125 211.101562 135.285156 212.507812 C 137.277344 213.9375 139.640625 214.707031 141.980469 214.707031 C 142.570312 214.707031 143.164062 214.660156 143.742188 214.558594 C 148.90625 213.667969 153.28125 209.296875 154.625 203.671875 L 152.007812 203.046875 C 150.929688 207.5625 147.34375 211.210938 143.289062 211.902344 "/>
<path style=" stroke:none;fill-rule:nonzero;fill:rgb(95.289612%,3.529358%,3.529358%);fill-opacity:1;" d="M 131.289062 191.046875 L 130.515625 193.621094 C 133.9375 194.648438 137.613281 195.023438 141.144531 195.023438 C 150.203125 195.023438 158.316406 192.566406 158.785156 192.421875 L 157.996094 189.847656 C 157.839844 189.894531 142.710938 194.472656 131.289062 191.046875 "/>
<path style=" stroke:none;fill-rule:nonzero;fill:rgb(95.289612%,3.529358%,3.529358%);fill-opacity:1;" d="M 143.378906 198.570312 L 143.128906 201.253906 C 144.503906 201.382812 145.816406 201.441406 147.070312 201.441406 C 157.761719 201.441406 164.039062 197.234375 164.328125 197.035156 L 162.816406 194.8125 C 162.742188 194.863281 155.410156 199.695312 143.378906 198.570312 "/>
</g>
</svg>
